PathFileType	4	(X/Y/Z)	/Users/itak/Documents/Research/Walk-IL/dataset/trc/00295_00010.trc
DataRate	CameraRate	NumFrames	NumMarkers	Units	OrigDataRate	OrigDataStartFrame	OrigNumFrames
100.000000	100.000000	4	54	mm	100.000000	82	661
Frame#	Time	RPSI			LPSI			L3			STRN			T10			C7			CLAV			RBAK			LBAK			LSHO			LUPA			LAEL			LAOL			LWTS			LWPS			LFRA			LHPS			RSHO			RUPA			RAEL			RAOL			RWTS			RWPS			RFRA			RIFD			RHTS			RHPS			RBHD			LFHD			RFHD			LBHD			LHIP			RHIP			RASI			LASI			LKNE			LTHI			LANK			LTIP			LTOE			LMT1			LMT5			LHEE			RKNE			RTHI			RANK			RTIP			RTOE			RMT1			RMT5			RHEE			LIFD			LHTS			*53			
		X1	Y1	Z1	X2	Y2	Z2	X3	Y3	Z3	X4	Y4	Z4	X5	Y5	Z5	X6	Y6	Z6	X7	Y7	Z7	X8	Y8	Z8	X9	Y9	Z9	X10	Y10	Z10	X11	Y11	Z11	X12	Y12	Z12	X13	Y13	Z13	X14	Y14	Z14	X15	Y15	Z15	X16	Y16	Z16	X17	Y17	Z17	X18	Y18	Z18	X19	Y19	Z19	X20	Y20	Z20	X21	Y21	Z21	X22	Y22	Z22	X23	Y23	Z23	X24	Y24	Z24	X25	Y25	Z25	X26	Y26	Z26	X27	Y27	Z27	X28	Y28	Z28	X29	Y29	Z29	X30	Y30	Z30	X31	Y31	Z31	X32	Y32	Z32	X33	Y33	Z33	X34	Y34	Z34	X35	Y35	Z35	X36	Y36	Z36	X37	Y37	Z37	X38	Y38	Z38	X39	Y39	Z39	X40	Y40	Z40	X41	Y41	Z41	X42	Y42	Z42	X43	Y43	Z43	X44	Y44	Z44	X45	Y45	Z45	X46	Y46	Z46	X47	Y47	Z47	X48	Y48	Z48	X49	Y49	Z49	X50	Y50	Z50	X51	Y51	Z51	X52	Y52	Z52	X53	Y53	Z53	X54	Y54	Z54	

83	0.8200000000000001	178.6005859375	988.84228515625	1026.256958007812	125.7947082519531	990.1407470703125	1192.288208007812	127.5343017578125	1068.3662109375	1115.908203125	-136.5365600585938	1210.939453125	1017.463134765625	116.0179290771484	1186.01171875	1123.992065429688	32.99396896362305	1420.728515625	1115.255615234375	-94.00262451171875	1318.904663085938	1043.06298828125	130.8096160888672	1295.470703125	1071.723876953125	5.101713180541992	1382.048583984375	1216.495849609375	-99.29248046875	1373.1220703125	1221.623901367188	-98.80162811279297	1256.350952148438	1301.567260742188	-99.33483123779297	1055.010375976562	1305.761108398438	-14.89608860015869	1038.127685546875	1287.068603515625	-227.6039886474609	907.245849609375	1195.158569335938	-208.9746856689453	859.5028686523438	1245.105834960938	-137.6863098144531	962.2469482421875	1289.131225585938	-245.6596984863281	790.8163452148438	1209.60400390625	46.00453567504883	1398.121337890625	943.7703247070312	94.22501373291016	1348.287841796875	890.1286010742188	199.3935394287109	1101.580078125	871.0947875976562	179.6772613525391	1094.513061523438	964.2271728515625	158.6069946289062	855.052734375	868.0444946289062	237.1211853027344	872.3253173828125	836.8597412109375	206.5796966552734	1033.459106445312	852.490234375	209.8212432861328	677.5372924804688	878.1724243164062	181.1505889892578	739.0653686523438	842.428466796875	249.0875244140625	759.1417846679688	832.49169921875	57.57444763183594	1554.163208007812	1046.522338867188	-146.5506439208984	1615.880493164062	1041.112548828125	-93.16936492919922	1604.623779296875	967.3856201171875	-28.80682754516602	1562.729370117188	1163.009765625	36.97823333740234	937.5333251953125	1267.8125	108.5297317504883	939.5880126953125	898.2897338867188	-23.43734359741211	937.5374755859375	937.0825805664062	-84.42612457275391	931.5258178710938	1182.619262695312	55.02029418945312	470.00146484375	1225.155517578125	34.37777328491211	612.2110595703125	1245.2646484375	218.1266784667969	46.37572860717773	1229.379516601562	138.2565765380859	253.6751861572266	1237.531127929688	22.20730209350586	40.65288543701172	1140.180541992188	98.25756072998047	29.94279670715332	1110.561279296875	94.18123626708984	43.17178344726562	1222.500732421875	273.6414184570312	39.36649322509766	1179.348876953125	-100.1958389282227	513.9456787109375	867.1320190429688	1.590134620666504	756.3077392578125	866.1476440429688	-96.39891815185547	58.44178009033203	882.94287109375	-129.6112518310547	389.6943054199219	864.9234008789062	-291.5383911132812	90.89229583740234	894.8023071289062	-246.4761810302734	73.24616241455078	945.0668334960938	-194.7508697509766	65.0333251953125	840.492919921875	-56.63705062866211	44.75356674194336	940.3148193359375	-301.8847961425781	751.9633178710938	1126.053100585938	-291.1683349609375	826.3088989257812	1177.17919921875	nan	nan	nan	
84	0.8300000000000001	173.7933197021484	987.79638671875	1024.646728515625	120.2115478515625	989.0340576171875	1190.397216796875	122.2519454956055	1067.244262695312	1114.439208984375	-141.2890167236328	1209.536376953125	1014.220397949219	110.2129669189453	1184.809326171875	1122.63525390625	27.26985168457031	1419.519409179688	1113.195556640625	-99.10000610351562	1317.594970703125	1039.983276367188	125.4278182983398	1294.24755859375	1070.7021484375	-1.366726994514465	1380.931274414062	1214.2451171875	-105.8318023681641	1371.9638671875	1218.42822265625	-106.1070709228516	1255.276977539062	1298.508422851562	-107.4594955444336	1054.1318359375	1302.478759765625	-22.81984519958496	1036.613647460938	1284.5556640625	-237.9254608154297	910.6293334960938	1190.338012695312	-220.2427825927734	861.8194580078125	1239.847290039062	-147.0423889160156	962.5708618164062	1285.295532226562	-258.0877990722656	794.221923828125	1203.412841796875	41.83459091186523	1396.794677734375	941.8839111328125	90.74314880371094	1347.183837890625	888.8917236328125	198.0687255859375	1101.475341796875	871.8954467773438	176.5290069580078	1094.077026367188	964.5665283203125	160.4119720458984	854.4583129882812	867.887451171875	239.2477569580078	872.8733520507812	838.1453857421875	206.399169921875	1033.549926757812	853.292236328125	213.7207641601562	677.7058715820312	878.8163452148438	185.0526275634766	738.9039916992188	842.54541015625	252.8634948730469	759.8579711914062	833.9566650390625	52.53240585327148	1552.911743164062	1044.333740234375	-151.6362152099609	1614.564086914062	1037.528930664062	-97.73656463623047	1603.242553710938	964.1588745117188	-34.57484817504883	1561.492309570312	1160.126586914062	31.08278274536133	936.2557983398438	1265.478637695312	104.4177627563477	938.5718383789062	896.3771362304688	-27.75752830505371	936.4279174804688	934.5169677734375	-89.75792694091797	930.0399169921875	1179.899536132812	52.10881042480469	469.2007446289062	1223.484741210938	30.34805488586426	611.166748046875	1243.139038085938	218.0362548828125	46.61717224121094	1229.326049804688	136.7674560546875	253.5082855224609	1236.74853515625	22.14401245117188	40.47663879394531	1140.130249023438	98.27333068847656	29.9660758972168	1110.451293945312	94.15735626220703	43.19549560546875	1222.415283203125	273.5920715332031	39.63000869750977	1179.266479492188	-104.2390747070312	512.9982299804688	864.38720703125	-2.199829578399658	755.2897338867188	863.5393676757812	-116.5483169555664	57.50362396240234	875.519775390625	-137.4162139892578	389.8776550292969	860.83056640625	-311.07373046875	95.03342437744141	886.899169921875	-266.5209045410156	75.84466552734375	937.0144653320312	-214.5755004882812	67.0733642578125	832.7898559570312	-77.505859375	42.21677017211914	933.0256958007812	-314.6376953125	757.3259887695312	1119.24560546875	-302.7051086425781	830.9405517578125	1171.098754882812	nan	nan	nan	
85	0.84	168.8360595703125	986.6089477539062	1022.874755859375	114.4914627075195	987.8255615234375	1188.344482421875	116.8271102905273	1065.978515625	1112.802734375	-146.1108093261719	1208.05322265625	1010.887817382812	104.4093704223633	1183.525024414062	1121.110717773438	21.4914665222168	1418.21044921875	1110.997680664062	-104.2590942382812	1316.190795898438	1036.793090820312	119.9560775756836	1292.9130859375	1069.522705078125	-7.87828540802002	1379.70751953125	1211.857421875	-112.3973007202148	1370.716918945312	1215.122924804688	-113.4561462402344	1254.109252929688	1295.313110351562	-115.726676940918	1053.183959960938	1299.089111328125	-30.93765640258789	1034.972534179688	1281.896728515625	-248.1645965576172	913.8369140625	1185.37255859375	-231.5947723388672	864.1043701171875	1234.501342773438	-156.5462799072266	962.8359375	1281.32861328125	-270.6024780273438	797.5526123046875	1197.155029296875	37.55364227294922	1395.37255859375	939.86865234375	87.14238739013672	1345.967895507812	887.5358276367188	196.5089874267578	1101.251586914062	872.5906982421875	173.1456146240234	1093.4794921875	964.7578125	161.9473724365234	853.808349609375	867.6013793945312	241.0653381347656	873.3368530273438	839.3553466796875	205.9622497558594	1033.528076171875	853.9944458007812	217.2574768066406	677.8052368164062	879.357666015625	188.6439056396484	738.6921997070312	842.5667114257812	256.30419921875	760.511474609375	835.35595703125	47.38820266723633	1551.5927734375	1042.044799804688	-156.8051300048828	1613.147705078125	1033.90869140625	-102.3910064697266	1601.790283203125	960.8751220703125	-40.41423797607422	1560.131713867188	1157.153076171875	25.07394599914551	934.899169921875	1263.020385742188	100.0908279418945	937.3729248046875	894.332763671875	-32.2376708984375	935.164306640625	931.8291015625	-95.28904724121094	928.4979248046875	1177.02978515625	49.10440444946289	468.3671875	1221.802856445312	26.26465034484863	610.0921020507812	1240.983520507812	217.9260559082031	46.86014938354492	1229.302856445312	135.2496795654297	253.3404541015625	1235.954467773438	22.09074211120605	40.31019973754883	1140.095581054688	98.28137969970703	29.99347686767578	1110.36767578125	94.13227081298828	43.21497344970703	1222.35400390625	273.53955078125	39.92413330078125	1179.190063476562	-108.3046646118164	511.7939147949219	861.5552978515625	-6.103141307830811	754.0491333007812	860.8245849609375	-136.2429046630859	56.93785858154297	868.1082153320312	-145.0975341796875	389.9556274414062	856.7118530273438	-329.9743957519531	99.5823974609375	879.1067504882812	-286.0038146972656	78.82474517822266	929.0601806640625	-233.8625946044922	69.47412109375	825.154052734375	-98.01174926757812	40.08687591552734	925.783935546875	-327.4269104003906	762.6293334960938	1112.450561523438	-314.2619323730469	835.506591796875	1164.941284179688	nan	nan	nan	
86	0.85	163.7304382324219	985.28955078125	1020.934997558594	108.6316604614258	986.5286254882812	1186.125	111.2465744018555	1064.572143554688	1110.995361328125	-151.0111999511719	1206.5029296875	1007.456298828125	98.58261871337891	1182.14794921875	1119.423950195312	15.66674995422363	1416.804443359375	1108.658569335938	-109.4667739868164	1314.69189453125	1033.49658203125	114.3981552124023	1291.46630859375	1068.179565429688	-14.43548774719238	1378.377685546875	1209.33349609375	-118.9858627319336	1369.387939453125	1211.7080078125	-120.8443984985352	1252.854858398438	1291.980590820312	-124.1150665283203	1052.172485351562	1295.592529296875	-39.24668502807617	1033.212036132812	1279.084350585938	-258.3265991210938	916.86962890625	1180.265380859375	-243.0036163330078	866.3427124023438	1229.069213867188	-166.1803283691406	963.0446166992188	1277.233520507812	-283.1830749511719	800.7900390625	1190.8271484375	33.16840362548828	1393.856567382812	937.72216796875	83.41911315917969	1344.646240234375	886.0516357421875	194.7039031982422	1100.9072265625	873.163330078125	169.5428314208984	1092.7265625	964.78564453125	163.1763305664062	853.0957641601562	867.1751098632812	242.5455017089844	873.70458984375	840.472412109375	205.2586059570312	1033.389526367188	854.5791015625	220.4207611083984	677.8309326171875	879.8015747070312	191.8939819335938	738.4183959960938	842.4966430664062	259.3738708496094	761.0899658203125	836.6749877929688	42.138916015625	1550.210205078125	1039.654541015625	-162.055908203125	1611.635864257812	1030.250732421875	-107.1358642578125	1600.2744140625	957.5307006835938	-46.32499694824219	1558.65380859375	1154.094482421875	18.96211624145508	933.4786376953125	1260.440307617188	95.53772735595703	935.9934692382812	892.1470947265625	-36.87083435058594	933.7453002929688	929.0157470703125	-101.0036315917969	926.904052734375	1174.034912109375	46.00977325439453	467.5003967285156	1220.115600585938	22.13789367675781	609.0182495117188	1238.836547851562	217.7938537597656	47.10970306396484	1229.319946289062	133.6937561035156	253.1662139892578	1235.15771484375	22.04980659484863	40.15102767944336	1140.078002929688	98.28269195556641	30.01984214782715	1110.313110351562	94.10615539550781	43.22840118408203	1222.318725585938	273.4915466308594	40.25675964355469	1179.138061523438	-112.4495239257812	510.3597717285156	858.6488037109375	-10.15193367004395	752.5866088867188	857.9880981445312	-155.3650970458984	56.70528411865234	860.7283325195312	-152.6600646972656	389.9393310546875	852.5881958007812	-348.1234436035156	104.4991149902344	871.4116821289062	-304.81591796875	82.14073944091797	921.1888427734375	-252.4933776855469	72.21184539794922	817.582763671875	-118.0458068847656	38.32368850708008	918.6082153320312	-340.245849609375	767.8683471679688	1105.662719726562	-325.8064575195312	839.9926147460938	1158.700805664062	nan	nan	nan	
